<svg width="177" height="303" viewBox="0 0 177 303" fill="none" xmlns="http://www.w3.org/2000/svg">
<rect width="177" height="303" fill="none"/>
<path d="M3.00022 284L0.500217 284L0.500217 286.5L3.00022 286.5L3.00022 284ZM175.768 285.768C176.744 284.791 176.744 283.209 175.768 282.232L159.858 266.322C158.882 265.346 157.299 265.346 156.322 266.322C155.346 267.299 155.346 268.882 156.322 269.858L170.464 284L156.322 298.142C155.346 299.118 155.346 300.701 156.322 301.678C157.299 302.654 158.882 302.654 159.858 301.678L175.768 285.768ZM3.00021 2.9999L3.00021 0.499901L0.500214 0.4999L0.500214 2.9999L3.00021 2.9999ZM149 2.99993L149 0.499931L149 0.499931L149 2.99993ZM161.5 2.99995L161.5 5.49995L161.5 2.99995ZM3.00022 286.5L174 286.5L174 281.5L3.00022 281.5L3.00022 286.5ZM0.500214 2.9999L0.500217 284L5.50022 284L5.50021 2.9999L0.500214 2.9999ZM149 0.499931L3.00021 0.499901L3.00021 5.4999L149 5.49993L149 0.499931ZM174 0.499969L161.5 0.49995L161.5 5.49995L174 5.49997L174 0.499969ZM161.5 0.49995L149 0.499931L149 5.49993L161.5 5.49995L161.5 0.49995Z" fill="blue"/>
</svg>
